<?xml version="1.0" encoding="utf-8"?>
<!-- Generator: Adobe Illustrator 21.0.2, SVG Export Plug-In . SVG Version: 6.00 Build 0)  -->
<svg version="1.1" id="Layer_1" xmlns="http://www.w3.org/2000/svg" xmlns:xlink="http://www.w3.org/1999/xlink" x="0px" y="0px"
	 viewBox="0 0 16382.9 16382.9" style="enable-background:new 0 0 16382.9 16382.9;" xml:space="preserve">
<style type="text/css">
	.st0{fill:#587265;}
</style>
<path class="st0" d="M8309.3,8172.4c0.1,0.5-0.7,1.4-1.2,1.4c-4.5,0-8.9,0-13.4,0c-0.3,0-0.7-0.9-0.6-1.4c1.7-8.1,3.7-16.2,6.2-24.3
	c0.3-0.8,1.4-0.9,1.7,0C8304.9,8156.1,8307.3,8164.2,8309.3,8172.4z M8404.2,8144.5c-2.7,5-7.2,9.1-11.4,12.8
	c-9.7,8.6-26.2,10.8-35.3,0c-3-4.5-4.6-9.9-2-15.1c1.7-3.4,5-6.3,7.8-8.8c1.4-1.2,2.8-2.3,4.5-3.1c1.7-0.9,4.4-1.4,5-3.5
	c1.4-4.8-9-3.5-11.4-3.4c-12.1,0.3-24,2.4-36,3.8c-12,1.5-24.2,2.5-36.2,1.1c-0.2,0-0.4,0-0.6-0.1c-21.2,32.2-57.6,53.5-99,53.5
	c-26.8,0-51.5-8.9-71.4-23.9c-0.1,1.9-0.3,3.8-0.6,5.7c-1.4,10.8-7,19.8-16,25.9c-4.6,3.1-10.7,5.8-16.3,4.3
	c-6.1-1.5-10.5-7.2-10.7-13.4c-0.2-6.5,3.4-12.9,6.2-18.6c3.3-6.9,7.1-13.5,11.1-20c0.9-1.5,2.9-4,3.9-6.2c-1.3-1.7-2.6-3.5-3.9-5.3
	c-1.7-0.2-3.6-0.1-5.2-0.8c-2.1-0.9-3.5-3-5.8-3.5c-2.9-0.7-4.6,0.7-6.8,2.3c-3,2.2-6.2,4.3-9.4,6.3c-5.9,3.7-12.1,7-18.4,9.8
	c-13.6,6-28.5,9.1-43.4,8c-12.6-0.9-26.9-6.8-27.5-21.4c-0.3-9.1,8.3-17,15.3-21.7c8.7-5.9,24-7.5,30.6,2.2c1.6,3.2,2.7,6.3,2.1,9.9
	c-0.3,1.8-1,3.5-2,4.9c-0.9,1.2-1.8,1.7-1.8,3.2c-0.1,4.3,6.6,2.1,9.1,1.7c4.6-0.7,9.2-1.8,13.7-3.3c8.4-2.8,16.3-6.9,23.6-11.9
	c4-2.7,7.8-5.7,11.4-8.9c0.5-0.5,1-0.9,1.5-1.4c-4.2-10.9-6.8-22.6-7.6-34.7H8004v-96.6h107.3c20.9-18.4,48.2-29.5,78.2-29.5
	c30,0,57.3,11.1,78.2,29.5h109v96.7h-69.1c-0.8,13-3.8,25.5-8.5,37.1c1,0.1,2,0.2,3,0.3c12.7,1.1,25.4-0.7,38-2.5
	c20.2-2.9,51.6-10.1,63.9,11.9C8408.6,8126,8408.6,8136.3,8404.2,8144.5z M8317.8,7994.5c4.3,20,5.9,43.6,5.8,53.8
	c0,1.7,0.9,4,3.6,4.3c2.4,0.3,4.3-1.4,4.3-3.1c0.1-10.8-0.5-21.5-1.8-32.2c1.7-1.7,3.4-3.5,5.1-5.2c0.4-0.4,1.6-0.1,1.8,0.4
	c6.1,12.2,11.5,24.5,16.2,37.1c0.6,1.6,3.1,2.9,5.3,2.1c2.4-0.9,2.5-3.2,1.9-4.9c-5.1-13.4-10.9-26.7-17.5-39.8
	c-0.2-0.5-0.1-1.9,0.2-2.2c3.1-2.6,6.2-5.2,9.5-7.7c3.4-2.6-1-9.2-5.1-6c-6.3,4.8-12.1,9.8-17.6,15c-0.4,0.4-1.4,0-1.5-0.6
	c-0.7-4-1.5-8-2.4-11.9C8324.6,7989.2,8316.8,7989.9,8317.8,7994.5z M8059.5,7990.8l-36.8-0.2c-5.1,0-3.9,7.4,1.4,7.5
	c4,0,8,0,11.9,0.1c0.4,0,1.3,0.9,1.3,1.3c0.6,16,1.2,32,1.8,48c0.1,1.7,0.9,3.9,3.6,4.3c2.4,0.3,4.4-1.4,4.3-3.1
	c-0.6-16.5-1.2-32.9-1.8-49.4c0-0.4,0.8-1.1,1.2-1.1c4.8,0,9.6,0,14.4,0.1C8066,7998.3,8064.7,7990.8,8059.5,7990.8z M8132.3,8049.3
	c-0.3-18.4-0.7-36.8-1-55.2c0-1.7-0.9-3.9-3.6-4.3c-2.4-0.3-4.4,1.4-4.3,3.1c0.2,11.7,0.4,23.4,0.7,35.1c0,0.4-0.8,1.2-1.2,1.2
	c-7.3,0.1-14.6,0.1-21.9,0.2c-0.3,0-0.9-0.9-0.9-0.9l-1.9-35.4c-0.1-1.6-2.2-3.6-4.6-3.3c-2.7,0.3-3.3,2.5-3.2,4.1l3,55.2
	c0.1,1.6,2.2,3.6,4.6,3.3c2.7-0.3,3.3-2.5,3.2-4.1l-0.6-10.2c0,0,0.5-1.2,0.8-1.2c7.2-0.1,14.5-0.1,21.7-0.2c0.4,0,1.2,0.9,1.2,1.3
	c0.1,3.3,0.1,6.7,0.2,10c0,1.7,0.9,3.9,3.6,4.3C8130.4,8052.7,8132.4,8051,8132.3,8049.3z M8207,8050.2
	c-2.8-20.3-8.5-40.3-16.7-59.8c-0.7-1.6-3-3-5.3-2.4c-1.7,0-3.2,1-3.7,2.3c-7.1,19.6-11.7,39.7-14,59.9c-0.5,4.7,8,6.6,8.5,1.3
	c0.4-3.8,0.9-7.6,1.5-11.4c0.1-0.4,1.2-1.3,1.7-1.3c5.5,0,11,0,16.6,0c0.3,0,1.1,0.8,1.2,1.2c0.7,3.6,1.3,7.3,1.8,11
	C8199.2,8056.1,8207.7,8055.2,8207,8050.2z M8290.7,8049l-2.2-54.5c-0.1-1.7-0.9-3.9-3.6-4.3c-2.4-0.3-4.4,1.4-4.3,3.1
	c0.6,13.8,1.1,27.6,1.7,41.4c0,0.9-0.9,1.4-1.4,0.7c-10.9-14.5-21.9-29-32.8-43.4c-0.2-0.2-0.4-0.4-0.6-0.6
	c-0.9-0.8-2.1-1.3-3.4-1.2c-2.7,0.3-3.3,2.5-3.2,4.1c1,18.5,2.1,37,3.1,55.5c0.1,1.6,2.2,3.6,4.6,3.3c2.7-0.3,3.3-2.5,3.2-4.1
	c-0.8-13.6-1.5-27.1-2.3-40.7c0-0.7,0.8-1,1.2-0.4c10.8,14.2,21.5,28.5,32.3,42.7c0.7,0.9,1.9,1.4,3.1,1.5c0.1,0,0.1,0,0.2,0
	C8288.7,8052.4,8290.7,8050.7,8290.7,8049z"/>
</svg>
