<svg xmlns="http://www.w3.org/2000/svg" xmlns:xlink="http://www.w3.org/1999/xlink" version="1.1" x="0px" y="0px" viewBox="0 0 100 100" enable-background="new 0 0 100 100" xml:space="preserve"><g><path d="M41.32,23.11l-2.83,11.86h3.84l1.76-11.86H41.32z M51.34,23.11H48.7l-0.57,11.86h3.75L51.34,23.11z M58.81,23.11h-2.75   l1.721,11.86h3.89L58.81,23.11z M58.81,23.11h-2.75l1.721,11.86h3.89L58.81,23.11z M51.34,23.11H48.7l-0.57,11.86h3.75L51.34,23.11   z M41.32,23.11l-2.83,11.86h3.84l1.76-11.86H41.32z M41.32,23.11l-2.83,11.86h3.84l1.76-11.86H41.32z M51.34,23.11H48.7   l-0.57,11.86h3.75L51.34,23.11z M58.81,23.11h-2.75l1.721,11.86h3.89L58.81,23.11z M58.81,23.11h-2.75l1.721,11.86h3.89   L58.81,23.11z M51.34,23.11H48.7l-0.57,11.86h3.75L51.34,23.11z M41.32,23.11l-2.83,11.86h3.84l1.76-11.86H41.32z M41.32,23.11   l-2.83,11.86h3.84l1.76-11.86H41.32z M51.34,23.11H48.7l-0.57,11.86h3.75L51.34,23.11z M58.81,23.11h-2.75l1.721,11.86h3.89   L58.81,23.11z M58.81,23.11h-2.75l1.721,11.86h3.89L58.81,23.11z M51.34,23.11H48.7l-0.57,11.86h3.75L51.34,23.11z M41.32,23.11   l-2.83,11.86h3.84l1.76-11.86H41.32z M41.32,23.11l-2.83,11.86h3.84l1.76-11.86H41.32z M51.34,23.11H48.7l-0.57,11.86h3.75   L51.34,23.11z M58.81,23.11h-2.75l1.721,11.86h3.89L58.81,23.11z M61.67,34.97l-2.86-11.86h-2.75l1.721,11.86H61.67z M51.34,23.11   H48.7l-0.57,11.86h3.75L51.34,23.11z M44.09,23.11h-2.77l-2.83,11.86h3.84L44.09,23.11z M61.67,34.97l-2.86-11.86h-2.75   l1.721,11.86H61.67z M51.34,23.11H48.7l-0.57,11.86h3.75L51.34,23.11z M44.09,23.11h-2.77l-2.83,11.86h3.84L44.09,23.11z    M41.32,23.11l-2.83,11.86h3.84l1.76-11.86H41.32z M51.34,23.11H48.7l-0.57,11.86h3.75L51.34,23.11z M58.81,23.11h-2.75   l1.721,11.86h3.89L58.81,23.11z M58.81,23.11h-2.75l1.721,11.86h3.89L58.81,23.11z M51.34,23.11H48.7l-0.57,11.86h3.75L51.34,23.11   z M41.32,23.11l-2.83,11.86h3.84l1.76-11.86H41.32z M41.32,23.11l-2.83,11.86h3.84l1.76-11.86H41.32z M51.34,23.11H48.7   l-0.57,11.86h3.75L51.34,23.11z M58.81,23.11h-2.75l1.721,11.86h3.89L58.81,23.11z M58.81,23.11h-2.75l1.721,11.86h3.89   L58.81,23.11z M51.34,23.11H48.7l-0.57,11.86h3.75L51.34,23.11z M41.32,23.11l-2.83,11.86h3.84l1.76-11.86H41.32z M41.32,23.11   l-2.83,11.86h3.84l1.76-11.86H41.32z M51.34,23.11H48.7l-0.57,11.86h3.75L51.34,23.11z M58.81,23.11h-2.75l1.721,11.86h3.89   L58.81,23.11z M58.81,23.11h-2.75l1.721,11.86h3.89L58.81,23.11z M51.34,23.11H48.7l-0.57,11.86h3.75L51.34,23.11z M41.32,23.11   l-2.83,11.86h3.84l1.76-11.86H41.32z M59.7,39.21c-1.05,0-1.87-0.71-2.37-1.5c-0.49,0.79-1.36,1.5-2.42,1.5   c-1.05,0-1.92-0.71-2.42-1.5c-0.49,0.79-1.37,1.5-2.42,1.5c-1.05,0-1.92-0.71-2.42-1.5c-0.5,0.79-1.36,1.5-2.41,1.5   c-1.06,0-1.92-0.71-2.41-1.5c-0.5,0.79-1.35,1.5-2.4,1.5c-0.93,0-1.79-0.55-2.17-1.22V51.18h2.06v-4.56c0-0.2,0.02-0.38,0.06-0.57   V41.5h5v3.4c0.36,0.48,0.58,1.07,0.58,1.72v4.56h1.33v-4.56c0-1.56,1.26-2.82,2.81-2.82c0.78,0,1.48,0.32,2,0.82   c0.5,0.52,0.82,1.22,0.82,2v4.56h1.33v-4.56c0-0.67,0.23-1.28,0.63-1.77V41.5h5v9.68h2V37.99C61.5,38.66,60.63,39.21,59.7,39.21z    M59.7,39.21c-1.05,0-1.87-0.71-2.37-1.5c-0.49,0.79-1.36,1.5-2.42,1.5c-1.05,0-1.92-0.71-2.42-1.5c-0.49,0.79-1.37,1.5-2.42,1.5   c-1.05,0-1.92-0.71-2.42-1.5c-0.5,0.79-1.36,1.5-2.41,1.5c-1.06,0-1.92-0.71-2.41-1.5c-0.5,0.79-1.35,1.5-2.4,1.5   c-0.93,0-1.79-0.55-2.17-1.22V51.18h2.06v-4.56c0-0.2,0.02-0.38,0.06-0.57V41.5h5v3.4c0.36,0.48,0.58,1.07,0.58,1.72v4.56h1.33   v-4.56c0-1.56,1.26-2.82,2.81-2.82c0.78,0,1.48,0.32,2,0.82c0.5,0.52,0.82,1.22,0.82,2v4.56h1.33v-4.56c0-0.67,0.23-1.28,0.63-1.77   V41.5h5v9.68h2V37.99C61.5,38.66,60.63,39.21,59.7,39.21z M59.7,39.21c-1.05,0-1.87-0.71-2.37-1.5c-0.49,0.79-1.36,1.5-2.42,1.5   c-1.05,0-1.92-0.71-2.42-1.5c-0.49,0.79-1.37,1.5-2.42,1.5c-1.05,0-1.92-0.71-2.42-1.5c-0.5,0.79-1.36,1.5-2.41,1.5   c-1.06,0-1.92-0.71-2.41-1.5c-0.5,0.79-1.35,1.5-2.4,1.5c-0.93,0-1.79-0.55-2.17-1.22V51.18h2.06v-4.56c0-0.2,0.02-0.38,0.06-0.57   V41.5h5v3.4c0.36,0.48,0.58,1.07,0.58,1.72v4.56h1.33v-4.56c0-1.56,1.26-2.82,2.81-2.82c0.78,0,1.48,0.32,2,0.82   c0.5,0.52,0.82,1.22,0.82,2v4.56h1.33v-4.56c0-0.67,0.23-1.28,0.63-1.77V41.5h5v9.68h2V37.99C61.5,38.66,60.63,39.21,59.7,39.21z    M59.7,39.21c-1.05,0-1.87-0.71-2.37-1.5c-0.49,0.79-1.36,1.5-2.42,1.5c-1.05,0-1.92-0.71-2.42-1.5c-0.49,0.79-1.37,1.5-2.42,1.5   c-1.05,0-1.92-0.71-2.42-1.5c-0.5,0.79-1.36,1.5-2.41,1.5c-1.06,0-1.92-0.71-2.41-1.5c-0.5,0.79-1.35,1.5-2.4,1.5   c-0.93,0-1.79-0.55-2.17-1.22V51.18h2.06v-4.56c0-0.2,0.02-0.38,0.06-0.57V41.5h5v3.4c0.36,0.48,0.58,1.07,0.58,1.72v4.56h1.33   v-4.56c0-1.56,1.26-2.82,2.81-2.82c0.78,0,1.48,0.32,2,0.82c0.5,0.52,0.82,1.22,0.82,2v4.56h1.33v-4.56c0-0.67,0.23-1.28,0.63-1.77   V41.5h5v9.68h2V37.99C61.5,38.66,60.63,39.21,59.7,39.21z M59.7,39.21c-1.05,0-1.87-0.71-2.37-1.5c-0.49,0.79-1.36,1.5-2.42,1.5   c-1.05,0-1.92-0.71-2.42-1.5c-0.49,0.79-1.37,1.5-2.42,1.5c-1.05,0-1.92-0.71-2.42-1.5c-0.5,0.79-1.36,1.5-2.41,1.5   c-1.06,0-1.92-0.71-2.41-1.5c-0.5,0.79-1.35,1.5-2.4,1.5c-0.93,0-1.79-0.55-2.17-1.22V51.18h2.06v-4.56c0-0.2,0.02-0.38,0.06-0.57   V41.5h5v3.4c0.36,0.48,0.58,1.07,0.58,1.72v4.56h1.33v-4.56c0-1.56,1.26-2.82,2.81-2.82c0.78,0,1.48,0.32,2,0.82   c0.5,0.52,0.82,1.22,0.82,2v4.56h1.33v-4.56c0-0.67,0.23-1.28,0.63-1.77V41.5h5v9.68h2V37.99C61.5,38.66,60.63,39.21,59.7,39.21z    M59.7,39.21c-1.05,0-1.87-0.71-2.37-1.5c-0.49,0.79-1.36,1.5-2.42,1.5c-1.05,0-1.92-0.71-2.42-1.5c-0.49,0.79-1.37,1.5-2.42,1.5   c-1.05,0-1.92-0.71-2.42-1.5c-0.5,0.79-1.36,1.5-2.41,1.5c-1.06,0-1.92-0.71-2.41-1.5c-0.5,0.79-1.35,1.5-2.4,1.5   c-0.93,0-1.79-0.55-2.17-1.22V51.18h2.06v-4.56c0-0.2,0.02-0.38,0.06-0.57V41.5h5v3.4c0.36,0.48,0.58,1.07,0.58,1.72v4.56h1.33   v-4.56c0-1.56,1.26-2.82,2.81-2.82c0.78,0,1.48,0.32,2,0.82c0.5,0.52,0.82,1.22,0.82,2v4.56h1.33v-4.56c0-0.67,0.23-1.28,0.63-1.77   V41.5h5v9.68h2V37.99C61.5,38.66,60.63,39.21,59.7,39.21z M59.7,39.21c-1.05,0-1.87-0.71-2.37-1.5c-0.49,0.79-1.36,1.5-2.42,1.5   c-1.05,0-1.92-0.71-2.42-1.5c-0.49,0.79-1.37,1.5-2.42,1.5c-1.05,0-1.92-0.71-2.42-1.5c-0.5,0.79-1.36,1.5-2.41,1.5   c-1.06,0-1.92-0.71-2.41-1.5c-0.5,0.79-1.35,1.5-2.4,1.5c-0.93,0-1.79-0.55-2.17-1.22V51.18h2.06v-4.56c0-0.2,0.02-0.38,0.06-0.57   V41.5h5v3.4c0.36,0.48,0.58,1.07,0.58,1.72v4.56h1.33v-4.56c0-1.56,1.26-2.82,2.81-2.82c0.78,0,1.48,0.32,2,0.82   c0.5,0.52,0.82,1.22,0.82,2v4.56h1.33v-4.56c0-0.67,0.23-1.28,0.63-1.77V41.5h5v9.68h2V37.99C61.5,38.66,60.63,39.21,59.7,39.21z    M59.7,39.21c-1.05,0-1.87-0.71-2.37-1.5c-0.49,0.79-1.36,1.5-2.42,1.5c-1.05,0-1.92-0.71-2.42-1.5c-0.49,0.79-1.37,1.5-2.42,1.5   c-1.05,0-1.92-0.71-2.42-1.5c-0.5,0.79-1.36,1.5-2.41,1.5c-1.06,0-1.92-0.71-2.41-1.5c-0.5,0.79-1.35,1.5-2.4,1.5   c-0.93,0-1.79-0.55-2.17-1.22V51.18h2.06v-4.56c0-0.2,0.02-0.38,0.06-0.57V41.5h5v3.4c0.36,0.48,0.58,1.07,0.58,1.72v4.56h1.33   v-4.56c0-1.56,1.26-2.82,2.81-2.82c0.78,0,1.48,0.32,2,0.82c0.5,0.52,0.82,1.22,0.82,2v4.56h1.33v-4.56c0-0.67,0.23-1.28,0.63-1.77   V41.5h5v9.68h2V37.99C61.5,38.66,60.63,39.21,59.7,39.21z M59.7,39.21c-1.05,0-1.87-0.71-2.37-1.5c-0.49,0.79-1.36,1.5-2.42,1.5   c-1.05,0-1.92-0.71-2.42-1.5c-0.49,0.79-1.37,1.5-2.42,1.5c-1.05,0-1.92-0.71-2.42-1.5c-0.5,0.79-1.36,1.5-2.41,1.5   c-1.06,0-1.92-0.71-2.41-1.5c-0.5,0.79-1.35,1.5-2.4,1.5c-0.93,0-1.79-0.55-2.17-1.22V51.18h9.03v-4.56c0-1.56,1.26-2.82,2.81-2.82   c0.78,0,1.48,0.32,2,0.82c0.5,0.52,0.82,1.22,0.82,2v4.56h8.96V37.99C61.5,38.66,60.63,39.21,59.7,39.21z M45.38,48.75h-5V41.5h5   V48.75z M59.88,48.75h-5V41.5h5V48.75z M59.7,39.21c-1.05,0-1.87-0.71-2.37-1.5c-0.49,0.79-1.36,1.5-2.42,1.5   c-1.05,0-1.92-0.71-2.42-1.5c-0.49,0.79-1.37,1.5-2.42,1.5c-1.05,0-1.92-0.71-2.42-1.5c-0.5,0.79-1.36,1.5-2.41,1.5   c-1.06,0-1.92-0.71-2.41-1.5c-0.5,0.79-1.35,1.5-2.4,1.5c-0.93,0-1.79-0.55-2.17-1.22V51.18h9.03v-4.56c0-1.56,1.26-2.82,2.81-2.82   c0.78,0,1.48,0.32,2,0.82c0.5,0.52,0.82,1.22,0.82,2v4.56h8.96V37.99C61.5,38.66,60.63,39.21,59.7,39.21z M45.38,48.75h-5V41.5h5   V48.75z M59.88,48.75h-5V41.5h5V48.75z M59.7,39.21c-1.05,0-1.87-0.71-2.37-1.5c-0.49,0.79-1.36,1.5-2.42,1.5   c-1.05,0-1.92-0.71-2.42-1.5c-0.49,0.79-1.37,1.5-2.42,1.5c-1.05,0-1.92-0.71-2.42-1.5c-0.5,0.79-1.36,1.5-2.41,1.5   c-1.06,0-1.92-0.71-2.41-1.5c-0.5,0.79-1.35,1.5-2.4,1.5c-0.93,0-1.79-0.55-2.17-1.22V51.18h9.03v-4.56c0-1.56,1.26-2.82,2.81-2.82   c0.78,0,1.48,0.32,2,0.82c0.5,0.52,0.82,1.22,0.82,2v4.56h8.96V37.99C61.5,38.66,60.63,39.21,59.7,39.21z M45.38,48.75h-5V41.5h5   V48.75z M59.88,48.75h-5V41.5h5V48.75z M59.7,39.21c-1.05,0-1.87-0.71-2.37-1.5c-0.49,0.79-1.36,1.5-2.42,1.5   c-1.05,0-1.92-0.71-2.42-1.5c-0.49,0.79-1.37,1.5-2.42,1.5c-1.05,0-1.92-0.71-2.42-1.5c-0.5,0.79-1.36,1.5-2.41,1.5   c-1.06,0-1.92-0.71-2.41-1.5c-0.5,0.79-1.35,1.5-2.4,1.5c-0.93,0-1.79-0.55-2.17-1.22V51.18h9.03v-4.56c0-1.56,1.26-2.82,2.81-2.82   c0.78,0,1.48,0.32,2,0.82c0.5,0.52,0.82,1.22,0.82,2v4.56h8.96V37.99C61.5,38.66,60.63,39.21,59.7,39.21z M45.38,48.75h-5V41.5h5   V48.75z M59.88,48.75h-5V41.5h5V48.75z M50,7.58c-16.01,0-28.99,11.48-28.99,28.99C21.01,61,50,70.83,50,95.83   c0-25,28.99-35.35,28.99-59.26C78.99,20.56,66.01,7.58,50,7.58z M67.46,35.48c-0.08,1.08-1.28,2.73-2.88,2.73   c-0.271,0-0.41-0.05-0.8,1.09L63.72,53.12c-1.229,0-26.61,0.05-27.34,0.05L36.35,39.3c-0.38-1.14-0.52-1.1-0.8-1.1   c-1.6,0-2.8-1.64-2.88-2.72l-0.04-0.51h0.04c0,0-0.01-0.07,0-0.12c0.03-0.11,0.11-0.18,0.2-0.24l3.93-11.93   c0.06-0.2,0.23-0.33,0.43-0.33H62.9c0.199,0,0.38,0.13,0.439,0.32l3.98,11.97c0.06,0.05,0.109,0.1,0.14,0.18   c0.01,0.05,0.01,0.15,0,0.15h0.04L67.46,35.48z M59.7,39.21c-1.05,0-1.87-0.71-2.37-1.5c-0.49,0.79-1.36,1.5-2.42,1.5   c-1.05,0-1.92-0.71-2.42-1.5c-0.49,0.79-1.37,1.5-2.42,1.5c-1.05,0-1.92-0.71-2.42-1.5c-0.5,0.79-1.36,1.5-2.41,1.5   c-1.06,0-1.92-0.71-2.41-1.5c-0.5,0.79-1.35,1.5-2.4,1.5c-0.93,0-1.79-0.55-2.17-1.22V51.18h9.03v-4.56c0-1.56,1.26-2.82,2.81-2.82   c0.78,0,1.48,0.32,2,0.82c0.5,0.52,0.82,1.22,0.82,2v4.56h8.96V37.99C61.5,38.66,60.63,39.21,59.7,39.21z M45.38,48.75h-5V41.5h5   V48.75z M59.88,48.75h-5V41.5h5V48.75z M59.7,39.21c-1.05,0-1.87-0.71-2.37-1.5c-0.49,0.79-1.36,1.5-2.42,1.5   c-1.05,0-1.92-0.71-2.42-1.5c-0.49,0.79-1.37,1.5-2.42,1.5c-1.05,0-1.92-0.71-2.42-1.5c-0.5,0.79-1.36,1.5-2.41,1.5   c-1.06,0-1.92-0.71-2.41-1.5c-0.5,0.79-1.35,1.5-2.4,1.5c-0.93,0-1.79-0.55-2.17-1.22V51.18h9.03v-4.56c0-1.56,1.26-2.82,2.81-2.82   c0.78,0,1.48,0.32,2,0.82c0.5,0.52,0.82,1.22,0.82,2v4.56h8.96V37.99C61.5,38.66,60.63,39.21,59.7,39.21z M45.38,48.75h-5V41.5h5   V48.75z M59.88,48.75h-5V41.5h5V48.75z M59.7,39.21c-1.05,0-1.87-0.71-2.37-1.5c-0.49,0.79-1.36,1.5-2.42,1.5   c-1.05,0-1.92-0.71-2.42-1.5c-0.49,0.79-1.37,1.5-2.42,1.5c-1.05,0-1.92-0.71-2.42-1.5c-0.5,0.79-1.36,1.5-2.41,1.5   c-1.06,0-1.92-0.71-2.41-1.5c-0.5,0.79-1.35,1.5-2.4,1.5c-0.93,0-1.79-0.55-2.17-1.22V51.18h9.03v-4.56c0-1.56,1.26-2.82,2.81-2.82   c0.78,0,1.48,0.32,2,0.82c0.5,0.52,0.82,1.22,0.82,2v4.56h8.96V37.99C61.5,38.66,60.63,39.21,59.7,39.21z M45.38,48.75h-5V41.5h5   V48.75z M59.88,48.75h-5V41.5h5V48.75z M59.7,39.21c-1.05,0-1.87-0.71-2.37-1.5c-0.49,0.79-1.36,1.5-2.42,1.5   c-1.05,0-1.92-0.71-2.42-1.5c-0.49,0.79-1.37,1.5-2.42,1.5c-1.05,0-1.92-0.71-2.42-1.5c-0.5,0.79-1.36,1.5-2.41,1.5   c-1.06,0-1.92-0.71-2.41-1.5c-0.5,0.79-1.35,1.5-2.4,1.5c-0.93,0-1.79-0.55-2.17-1.22V51.18h9.03v-4.56c0-1.56,1.26-2.82,2.81-2.82   c0.78,0,1.48,0.32,2,0.82c0.5,0.52,0.82,1.22,0.82,2v4.56h8.96V37.99C61.5,38.66,60.63,39.21,59.7,39.21z M45.38,48.75h-5V41.5h5   V48.75z M59.88,48.75h-5V41.5h5V48.75z M59.7,39.21c-1.05,0-1.87-0.71-2.37-1.5c-0.49,0.79-1.36,1.5-2.42,1.5   c-1.05,0-1.92-0.71-2.42-1.5c-0.49,0.79-1.37,1.5-2.42,1.5c-1.05,0-1.92-0.71-2.42-1.5c-0.5,0.79-1.36,1.5-2.41,1.5   c-1.06,0-1.92-0.71-2.41-1.5c-0.5,0.79-1.35,1.5-2.4,1.5c-0.93,0-1.79-0.55-2.17-1.22V51.18h2.06v-4.56c0-0.2,0.02-0.38,0.06-0.57   V41.5h5v3.4c0.36,0.48,0.58,1.07,0.58,1.72v4.56h1.33v-4.56c0-1.56,1.26-2.82,2.81-2.82c0.78,0,1.48,0.32,2,0.82   c0.5,0.52,0.82,1.22,0.82,2v4.56h1.33v-4.56c0-0.67,0.23-1.28,0.63-1.77V41.5h5v9.68h2V37.99C61.5,38.66,60.63,39.21,59.7,39.21z    M59.7,39.21c-1.05,0-1.87-0.71-2.37-1.5c-0.49,0.79-1.36,1.5-2.42,1.5c-1.05,0-1.92-0.71-2.42-1.5c-0.49,0.79-1.37,1.5-2.42,1.5   c-1.05,0-1.92-0.71-2.42-1.5c-0.5,0.79-1.36,1.5-2.41,1.5c-1.06,0-1.92-0.71-2.41-1.5c-0.5,0.79-1.35,1.5-2.4,1.5   c-0.93,0-1.79-0.55-2.17-1.22V51.18h2.06v-4.56c0-0.2,0.02-0.38,0.06-0.57V41.5h5v3.4c0.36,0.48,0.58,1.07,0.58,1.72v4.56h1.33   v-4.56c0-1.56,1.26-2.82,2.81-2.82c0.78,0,1.48,0.32,2,0.82c0.5,0.52,0.82,1.22,0.82,2v4.56h1.33v-4.56c0-0.67,0.23-1.28,0.63-1.77   V41.5h5v9.68h2V37.99C61.5,38.66,60.63,39.21,59.7,39.21z M59.7,39.21c-1.05,0-1.87-0.71-2.37-1.5c-0.49,0.79-1.36,1.5-2.42,1.5   c-1.05,0-1.92-0.71-2.42-1.5c-0.49,0.79-1.37,1.5-2.42,1.5c-1.05,0-1.92-0.71-2.42-1.5c-0.5,0.79-1.36,1.5-2.41,1.5   c-1.06,0-1.92-0.71-2.41-1.5c-0.5,0.79-1.35,1.5-2.4,1.5c-0.93,0-1.79-0.55-2.17-1.22V51.18h2.06v-4.56c0-0.2,0.02-0.38,0.06-0.57   V41.5h5v3.4c0.36,0.48,0.58,1.07,0.58,1.72v4.56h1.33v-4.56c0-1.56,1.26-2.82,2.81-2.82c0.78,0,1.48,0.32,2,0.82   c0.5,0.52,0.82,1.22,0.82,2v4.56h1.33v-4.56c0-0.67,0.23-1.28,0.63-1.77V41.5h5v9.68h2V37.99C61.5,38.66,60.63,39.21,59.7,39.21z    M59.7,39.21c-1.05,0-1.87-0.71-2.37-1.5c-0.49,0.79-1.36,1.5-2.42,1.5c-1.05,0-1.92-0.71-2.42-1.5c-0.49,0.79-1.37,1.5-2.42,1.5   c-1.05,0-1.92-0.71-2.42-1.5c-0.5,0.79-1.36,1.5-2.41,1.5c-1.06,0-1.92-0.71-2.41-1.5c-0.5,0.79-1.35,1.5-2.4,1.5   c-0.93,0-1.79-0.55-2.17-1.22V51.18h2.06v-4.56c0-0.2,0.02-0.38,0.06-0.57V41.5h5v3.4c0.36,0.48,0.58,1.07,0.58,1.72v4.56h1.33   v-4.56c0-1.56,1.26-2.82,2.81-2.82c0.78,0,1.48,0.32,2,0.82c0.5,0.52,0.82,1.22,0.82,2v4.56h1.33v-4.56c0-0.67,0.23-1.28,0.63-1.77   V41.5h5v9.68h2V37.99C61.5,38.66,60.63,39.21,59.7,39.21z M59.7,39.21c-1.05,0-1.87-0.71-2.37-1.5c-0.49,0.79-1.36,1.5-2.42,1.5   c-1.05,0-1.92-0.71-2.42-1.5c-0.49,0.79-1.37,1.5-2.42,1.5c-1.05,0-1.92-0.71-2.42-1.5c-0.5,0.79-1.36,1.5-2.41,1.5   c-1.06,0-1.92-0.71-2.41-1.5c-0.5,0.79-1.35,1.5-2.4,1.5c-0.93,0-1.79-0.55-2.17-1.22V51.18h2.06v-4.56c0-0.2,0.02-0.38,0.06-0.57   V41.5h5v3.4c0.36,0.48,0.58,1.07,0.58,1.72v4.56h1.33v-4.56c0-1.56,1.26-2.82,2.81-2.82c0.78,0,1.48,0.32,2,0.82   c0.5,0.52,0.82,1.22,0.82,2v4.56h1.33v-4.56c0-0.67,0.23-1.28,0.63-1.77V41.5h5v9.68h2V37.99C61.5,38.66,60.63,39.21,59.7,39.21z    M59.7,39.21c-1.05,0-1.87-0.71-2.37-1.5c-0.49,0.79-1.36,1.5-2.42,1.5c-1.05,0-1.92-0.71-2.42-1.5c-0.49,0.79-1.37,1.5-2.42,1.5   c-1.05,0-1.92-0.71-2.42-1.5c-0.5,0.79-1.36,1.5-2.41,1.5c-1.06,0-1.92-0.71-2.41-1.5c-0.5,0.79-1.35,1.5-2.4,1.5   c-0.93,0-1.79-0.55-2.17-1.22V51.18h2.06v-4.56c0-0.2,0.02-0.38,0.06-0.57V41.5h5v3.4c0.36,0.48,0.58,1.07,0.58,1.72v4.56h1.33   v-4.56c0-1.56,1.26-2.82,2.81-2.82c0.78,0,1.48,0.32,2,0.82c0.5,0.52,0.82,1.22,0.82,2v4.56h1.33v-4.56c0-0.67,0.23-1.28,0.63-1.77   V41.5h5v9.68h2V37.99C61.5,38.66,60.63,39.21,59.7,39.21z M59.7,39.21c-1.05,0-1.87-0.71-2.37-1.5c-0.49,0.79-1.36,1.5-2.42,1.5   c-1.05,0-1.92-0.71-2.42-1.5c-0.49,0.79-1.37,1.5-2.42,1.5c-1.05,0-1.92-0.71-2.42-1.5c-0.5,0.79-1.36,1.5-2.41,1.5   c-1.06,0-1.92-0.71-2.41-1.5c-0.5,0.79-1.35,1.5-2.4,1.5c-0.93,0-1.79-0.55-2.17-1.22V51.18h9.03v-4.56c0-1.56,1.26-2.82,2.81-2.82   c0.78,0,1.48,0.32,2,0.82c0.5,0.52,0.82,1.22,0.82,2v4.56h8.96V37.99C61.5,38.66,60.63,39.21,59.7,39.21z M45.38,48.75h-5V41.5h5   V48.75z M59.88,48.75h-5V41.5h5V48.75z"></path></g></svg>